<svg xmlns="http://www.w3.org/2000/svg" width="29.943" height="22.808" viewBox="0 0 29.943 22.808"><defs><style>.a{fill:#397ec1;}</style></defs><g transform="translate(0 -61)"><g transform="translate(1.504 61)"><path class="a" d="M51.528,61H26.848a2.6,2.6,0,0,0-1.127.264L39.13,74.672l3.005-2.888h0l10.52-10.52A2.6,2.6,0,0,0,51.528,61Z" transform="translate(-25.721 -61)"/></g><g transform="translate(19.779 62.505)"><path class="a" d="M348.113,86.728l-9.9,9.9,9.9,9.9a2.6,2.6,0,0,0,.264-1.127V87.855A2.6,2.6,0,0,0,348.113,86.728Z" transform="translate(-338.213 -86.728)"/></g><g transform="translate(0 62.504)"><path class="a" d="M.264,86.721A2.6,2.6,0,0,0,0,87.848v17.545a2.6,2.6,0,0,0,.264,1.127l9.9-9.9Z" transform="translate(0 -86.721)"/></g><g transform="translate(1.504 73.644)"><path class="a" d="M42.749,277.211,39.743,280.1a.877.877,0,0,1-1.24,0l-2.889-2.889-9.9,9.9a2.6,2.6,0,0,0,1.128.264H51.521a2.6,2.6,0,0,0,1.127-.264Z" transform="translate(-25.714 -277.211)"/></g></g></svg>