<svg xmlns="http://www.w3.org/2000/svg" width="29.943" height="29.883" viewBox="0 0 29.943 29.883"><defs><style>.a{fill:#397ec1;}</style></defs><g transform="translate(0 -0.316)"><path class="a" d="M231.816,350.813c2.29-.325,4.3-2.715,5.56-6.244a27.177,27.177,0,0,0-5.56-.655Zm0,0" transform="translate(-216.31 -320.614)"/><path class="a" d="M279.965,363.034c.135-.039.27-.079.4-.122.113-.036.224-.076.336-.114.132-.045.263-.092.393-.142.111-.042.222-.087.332-.132l.381-.16c.11-.048.219-.1.328-.15s.247-.118.369-.179.214-.11.321-.168.239-.13.357-.2.21-.121.315-.184l.346-.214c.1-.065.205-.132.306-.2s.224-.155.335-.234.2-.142.3-.214.217-.168.324-.254.19-.152.284-.23.209-.181.313-.273.182-.161.271-.244.2-.194.3-.292.173-.169.258-.256l.047-.05a17.989,17.989,0,0,0-3.667-1.411,13.279,13.279,0,0,1-3.42,5.554l.13-.032C279.741,363.1,279.853,363.068,279.965,363.034Zm0,0" transform="translate(-260.8 -333.397)"/><path class="a" d="M343.056,231.684h-6.416a27.752,27.752,0,0,1-1.08,7.4,18.613,18.613,0,0,1,4.061,1.616,14.951,14.951,0,0,0,3.435-9.02Zm0,0" transform="translate(-313.113 -215.891)"/><path class="a" d="M231.816,116.082h6.95a26.77,26.77,0,0,0-1.054-7.14,28.186,28.186,0,0,1-5.9.7Zm0,0" transform="translate(-216.31 -101.36)"/><path class="a" d="M231.816.316v6.9a27.2,27.2,0,0,0,5.56-.655c-1.263-3.529-3.27-5.919-5.56-6.244Zm0,0" transform="translate(-216.31)"/><path class="a" d="M231.816,238.121a28.205,28.205,0,0,1,5.9.7,26.772,26.772,0,0,0,1.054-7.14h-6.95Zm0,0" transform="translate(-216.309 -215.891)"/><path class="a" d="M339.619,80.844a18.612,18.612,0,0,1-4.061,1.616,27.751,27.751,0,0,1,1.08,7.4h6.416a14.955,14.955,0,0,0-3.435-9.02Zm0,0" transform="translate(-313.112 -75.141)"/><path class="a" d="M286.548,10.938l-.046-.05c-.085-.087-.172-.171-.259-.256s-.2-.2-.3-.292-.18-.161-.271-.243-.207-.185-.314-.274-.187-.153-.281-.228-.217-.173-.327-.256-.195-.143-.293-.214-.224-.161-.338-.237-.2-.133-.3-.2-.231-.147-.349-.218-.207-.123-.312-.182q-.179-.1-.361-.2c-.107-.054-.214-.112-.321-.165-.123-.062-.247-.122-.374-.181q-.161-.076-.326-.149c-.127-.056-.255-.107-.383-.16-.11-.045-.22-.089-.331-.132-.13-.05-.262-.1-.393-.142-.111-.039-.223-.078-.336-.115-.134-.043-.268-.083-.4-.123-.111-.033-.223-.066-.336-.1-.043-.012-.087-.021-.13-.032a13.28,13.28,0,0,1,3.42,5.554,17.96,17.96,0,0,0,3.671-1.412Zm0,0" transform="translate(-260.764 -6.047)"/><path class="a" d="M0,89.863H6.416a27.762,27.762,0,0,1,1.08-7.4,18.588,18.588,0,0,1-4.061-1.616A14.951,14.951,0,0,0,0,89.863Zm0,0" transform="translate(0 -75.141)"/><path class="a" d="M138.255,350.813v-6.9a27.2,27.2,0,0,0-5.56.655C133.958,348.1,135.965,350.488,138.255,350.813Zm0,0" transform="translate(-123.819 -320.614)"/><path class="a" d="M118.871,231.684h-6.95a26.762,26.762,0,0,0,1.054,7.14,28.167,28.167,0,0,1,5.9-.7Zm0,0" transform="translate(-104.434 -215.891)"/><path class="a" d="M138.255.316c-2.29.325-4.3,2.715-5.56,6.244a27.161,27.161,0,0,0,5.56.655Zm0,0" transform="translate(-123.819)"/><path class="a" d="M118.871,109.644a28.188,28.188,0,0,1-5.9-.7,26.76,26.76,0,0,0-1.054,7.14h6.95Zm0,0" transform="translate(-104.435 -101.359)"/><path class="a" d="M69.276,6.789l-.13.032c-.113.03-.225.064-.338.1-.134.039-.268.079-.4.122-.114.037-.225.076-.337.115-.131.046-.262.092-.392.141-.112.043-.222.087-.333.133l-.38.16c-.11.048-.219.1-.328.15s-.247.118-.369.179-.214.111-.321.167-.239.13-.357.2-.212.121-.316.184-.231.142-.346.214-.205.132-.306.2-.224.155-.335.234-.2.142-.3.214-.214.168-.324.253c-.1.076-.191.152-.284.23s-.209.18-.312.271-.184.161-.273.245-.2.193-.3.291-.174.169-.259.257c-.015.016-.03.034-.047.05a17.966,17.966,0,0,0,3.667,1.411,13.274,13.274,0,0,1,3.418-5.55Zm0,0" transform="translate(-58.031 -6.04)"/><path class="a" d="M62.531,359.279c.1.1.2.2.3.292s.18.16.271.243.207.185.314.274.187.153.281.228.214.173.327.256c.1.072.194.142.292.214s.225.16.339.237.2.133.3.2.231.147.349.218.207.123.312.183q.18.1.361.2c.107.054.214.112.321.165.123.062.247.122.374.181q.161.076.326.149c.127.056.254.107.383.16.11.045.22.089.331.132.13.05.262.1.393.142.111.039.223.078.336.114.134.043.268.083.4.123.111.033.223.066.336.1.043.012.087.021.131.032a13.282,13.282,0,0,1-3.42-5.554,17.967,17.967,0,0,0-3.667,1.412l.046.05C62.357,359.11,62.443,359.194,62.531,359.279Zm0,0" transform="translate(-58.068 -333.349)"/><path class="a" d="M3.435,240.7A18.613,18.613,0,0,1,7.5,239.086a27.762,27.762,0,0,1-1.08-7.4H0A14.954,14.954,0,0,0,3.435,240.7Zm0,0" transform="translate(0 -215.89)"/></g></svg>