<svg xmlns="http://www.w3.org/2000/svg" width="88.865" height="92.945" viewBox="0 0 88.865 92.945"><defs><style>.a{fill:#fa0;opacity:0.17;}.b{fill:#397ec1;}</style></defs><g transform="translate(-1194.163 -858.935)"><path class="a" d="M29.146,11.806a8,8,0,0,1,13.811,0L65.061,49.6a8,8,0,0,1-6.905,12.039H13.947A8,8,0,0,1,7.042,49.6Z" transform="matrix(-0.485, 0.875, -0.875, -0.485, 1283.027, 888.816)"/><g transform="translate(1197.369 868.457)"><g transform="translate(0 6.028)"><g transform="translate(0 0)"><path class="b" d="M104.09,350.322a7.437,7.437,0,1,0,7.437,7.437A7.437,7.437,0,0,0,104.09,350.322Zm0,11.568a4.132,4.132,0,1,1,4.131-4.131A4.131,4.131,0,0,1,104.09,361.89Z" transform="translate(-81.366 -295.868)"/><path class="b" d="M302.621,350.322a7.437,7.437,0,1,0,7.437,7.437A7.437,7.437,0,0,0,302.621,350.322Zm0,11.568a4.132,4.132,0,1,1,4.131-4.131A4.131,4.131,0,0,1,302.621,361.89Z" transform="translate(-248.497 -295.868)"/><path class="b" d="M70.9,17.1a2.066,2.066,0,0,0-1.322-.661L15.783,15.7,14.3,11.151A7.6,7.6,0,0,0,7.189,6.028H1.653a1.653,1.653,0,1,0,0,3.305H7.189a4.3,4.3,0,0,1,3.966,2.892L21.649,43.873l-.826,1.9a7.932,7.932,0,0,0,.744,7.189,7.685,7.685,0,0,0,6.2,3.471H59.908a1.653,1.653,0,1,0,0-3.305H27.764a4.214,4.214,0,0,1-3.471-1.983,4.544,4.544,0,0,1-.413-3.966l.661-1.487,34.788-3.636a9.089,9.089,0,0,0,7.85-6.941l3.966-16.609A1.4,1.4,0,0,0,70.9,17.1ZM63.956,34.37a5.619,5.619,0,0,1-5.04,4.379L24.541,42.3,16.857,19l50.653.744Z" transform="translate(0 -6.028)"/></g></g></g></g></svg>