<svg xmlns="http://www.w3.org/2000/svg" width="88.865" height="92.945" viewBox="0 0 88.865 92.945"><defs><style>.a{fill:#fa0;opacity:0.17;}.b{fill:#397ec1;}</style></defs><g transform="translate(-598.647 -867.001)"><path class="a" d="M29.146,11.806a8,8,0,0,1,13.811,0L65.061,49.6a8,8,0,0,1-6.905,12.039H13.947A8,8,0,0,1,7.042,49.6Z" transform="matrix(-0.485, 0.875, -0.875, -0.485, 687.512, 896.883)"/><g transform="translate(601.16 840.633)"><path class="b" d="M75.512,84.634l-14.8-14.8a7.048,7.048,0,0,0-9.967,0L48.6,71.975l-7.382-7.382a4.645,4.645,0,0,0-2.193-1.234V33.176a1.111,1.111,0,1,0-2.222,0V34.44H28.42a2.3,2.3,0,0,0-2.3,2.3v2.451h-7.2a1.111,1.111,0,0,0-.953,1.682l3.219,5.365L17.969,51.6a1.111,1.111,0,0,0,.953,1.682H29.608a1.111,1.111,0,1,0,0-2.222H20.883l2.553-4.254a1.111,1.111,0,0,0,0-1.143l-2.553-4.254h5.239v6.013a1.111,1.111,0,0,0,1.111,1.111h9.575V63.359a4.645,4.645,0,0,0-2.193,1.234L23.077,76.13l-.36-.36a7.056,7.056,0,0,0-9.967,0L.326,88.2A1.111,1.111,0,1,0,1.9,89.767L14.322,77.342a4.832,4.832,0,0,1,6.825,0l.36.36L2.7,96.507a1.111,1.111,0,0,0,1.571,1.571L20.109,82.241,21.8,83.932a3.49,3.49,0,0,0,4.929,0l4.012-4.012a.077.077,0,0,1,.108,0l1.637,1.637a3.49,3.49,0,0,0,4.929,0l4.43-4.431a1.165,1.165,0,0,1,1.645,0,1.111,1.111,0,0,0,1.571-1.571,3.389,3.389,0,0,0-4.787,0l-4.43,4.43a1.265,1.265,0,0,1-1.787,0L32.42,78.349a2.3,2.3,0,0,0-3.25,0l-4.012,4.012a1.265,1.265,0,0,1-1.787,0L21.68,80.67,36.186,66.164a2.451,2.451,0,0,1,3.467,0L53.565,80.076l-1.1,1.1a1.265,1.265,0,0,1-1.787,0l-2.306-2.306A1.111,1.111,0,0,0,46.8,80.439l2.306,2.306a3.49,3.49,0,0,0,4.929,0l1.1-1.1L71.567,98.078a1.111,1.111,0,0,0,1.571-1.571L50.176,73.546l2.141-2.141a4.826,4.826,0,0,1,6.825,0l14.8,14.8a1.111,1.111,0,1,0,1.571-1.571ZM28.344,46.313V36.738a.076.076,0,0,1,.076-.076h8.388v9.652H28.344Z"/></g></g></svg>