<svg xmlns="http://www.w3.org/2000/svg" width="29.942" height="30.005" viewBox="0 0 29.942 30.005"><defs><style>.a{fill:#397ec1;}</style></defs><g transform="translate(-0.539)"><g transform="translate(0.539 0)"><path class="a" d="M29.7,22.021l-4.187-4.187a2.785,2.785,0,0,0-4.636,1.047,2.85,2.85,0,0,1-3.29,1.795c-2.991-.748-7.029-4.636-7.776-7.776A2.71,2.71,0,0,1,11.6,9.608a2.785,2.785,0,0,0,1.047-4.636L8.461.785a2.987,2.987,0,0,0-4.038,0L1.581,3.627c-2.841,2.991.3,10.917,7.328,17.946S23.864,31.891,26.855,28.9L29.7,26.059A2.987,2.987,0,0,0,29.7,22.021Z" transform="translate(-0.539 0)"/></g></g></svg>