<svg xmlns="http://www.w3.org/2000/svg" width="26.272" height="35.931" viewBox="0 0 26.272 35.931"><defs><style>.a{fill:#397ec1;}</style></defs><g transform="translate(-68.817)"><g transform="translate(68.817)"><path class="a" d="M81.953,0A13.271,13.271,0,0,0,68.817,13.372c0,4.124,2.086,9.13,6.2,14.879a65.564,65.564,0,0,0,6.1,7.333,1.175,1.175,0,0,0,1.648.018,59.18,59.18,0,0,0,6.116-7.148C93,22.791,95.089,17.716,95.089,13.372A13.271,13.271,0,0,0,81.953,0Zm0,19.145a6.422,6.422,0,1,1,6.422-6.422A6.429,6.429,0,0,1,81.953,19.145Z" transform="translate(-68.817)"/></g></g></svg>