<svg xmlns="http://www.w3.org/2000/svg" width="88.865" height="92.945" viewBox="0 0 88.865 92.945"><defs><style>.a{fill:#fa0;opacity:0.17;}.b{fill:#397ec1;}</style></defs><g transform="translate(-1194.163 -858.935)"><path class="a" d="M29.146,11.806a8,8,0,0,1,13.811,0L65.061,49.6a8,8,0,0,1-6.905,12.039H13.947A8,8,0,0,1,7.042,49.6Z" transform="matrix(-0.485, 0.875, -0.875, -0.485, 1283.027, 888.816)"/><g transform="translate(1198.188 865)"><path class="b" d="M2.256,54.131l3.4,4.529L2.1,66.94A1.279,1.279,0,0,0,3.9,68.566L29.5,54.484a1.279,1.279,0,0,0,0-2.243L3.9,38.159A1.28,1.28,0,0,0,2.1,39.785l3.549,8.281-3.4,4.529a1.281,1.281,0,0,0,0,1.537Zm5.786,5.451,12.018-2.828L5.922,64.531Zm12.018-9.611L8.043,47.143,5.922,42.194ZM7.642,49.68l15.651,3.683L7.642,57.045,4.88,53.363Z" transform="translate(0 10.088)"/><path class="b" d="M56.088,2A20.493,20.493,0,0,0,35.669,21.2H32.294l-3.466-3.466-1.81,1.81L28.673,21.2H23.442a13.442,13.442,0,0,0,0,26.884H37.635L41.1,51.553l1.81-1.81-1.655-1.655H65.689a7.041,7.041,0,0,1,0,14.082H54.057L50.592,58.7l-1.81,1.81,1.655,1.655H30.483v2.56H50.437l-1.655,1.655,1.81,1.81,3.466-3.466H65.689a9.6,9.6,0,0,0,0-19.2H41.255l1.655-1.655-1.81-1.81-3.466,3.466H23.442a10.882,10.882,0,1,1,0-21.764h5.231l-1.655,1.655,1.81,1.81,3.466-3.466h3.375A20.471,20.471,0,1,0,56.088,2Zm0,38.406A17.933,17.933,0,0,1,38.23,23.764H42.07a14.082,14.082,0,1,0,0-2.56H38.23a17.914,17.914,0,1,1,17.858,19.2ZM53.152,27.229l3.841-3.841a1.28,1.28,0,0,0,0-1.81l-3.841-3.841-1.81,1.81L53,21.2H44.641a11.522,11.522,0,1,1,0,2.56H53l-1.655,1.655Z" transform="translate(2.242 0)"/><path class="b" d="M53.681,19.681A7.69,7.69,0,0,0,46,12v2.56A5.121,5.121,0,1,1,46,24.8v2.56A7.69,7.69,0,0,0,53.681,19.681Z" transform="translate(12.329 2.802)"/></g></g></svg>